<svg height="512" viewBox="0 0 56 56" width="512" xmlns="http://www.w3.org/2000/svg"><path id="Shape" d="m52.72 27.27-6 1.86.09-3.92 4.93-1.48zm-6.08 4 6.64-2 .58 2-7.27 2.24zm2.58-16.17 1.93 6.71-4.33 1.3c.18-9.11.37-9.41-.27-11.11 1.2913869.6052508 2.2628489 1.7331655 2.67 3.1zm-5.43-4c.8072157.9814794 1.2364395 2.2194883 1.21 3.49l-.25 11.41h-15.75v-4c.8081429.1052864 1.5993433-.2903139 2-1 .3572656-.6188022.3572656-1.3811978 0-2l-1.33-2.21c4.4958842-.6964566 8.316248-3.6590335 10.11-7.84 1.53.43 2.79.69 4.01 2.17zm-6.73-6.25.94 3.15c-.42 1.14-2.48 5.66-8.87 6.85.324722-2.1010603 1.5867027-3.9406823 3.43-5 1.9781384-1.16467613 3.5494084-2.91053173 4.5-5zm-5.57 3.29c-1.4888974.86626264-2.6996451 2.1394558-3.49 3.67-.7880578-1.5321774-1.999356-2.80594949-3.49-3.67-1.0097864-.59544587-1.9013137-1.37171871-2.63-2.29 4.0003628-1.14003492 8.2396372-1.14003492 12.24 0-.7286863.91828129-1.6202136 1.69455413-2.63 2.29zm-12.55-3.29c.9654515 2.09554082 2.5545276 3.84177821 4.55 5 1.8432973 1.0593177 3.105278 2.8989397 3.43 5-6.4-1.19-8.45-5.72-8.87-6.85zm9.06 13.09 1.23 2.06h-2.46zm8-16.74c-.0858706 1.00967213-.3535048 1.99551461-.79 2.91-4.6859532-1.47976316-9.7140468-1.47976316-14.4 0-.4423844-.91355381-.7167569-1.89926253-.81-2.91.61-.44 3.4-1.2 8-1.2s7.39.76 8 1.2zm-21 8.09 1.28-.37c1.7999668 4.1761565 5.6172272 7.1363267 10.11 7.84l-1.34 2.24c-.3562079.6169405-.3573625 1.3767843-.0030309 1.9948044.3543315.6180201 1.0106537 1.0009106 1.7230309 1.0051956h.23v4h-15.75l-.25-11.42c-.0061238-2.461588 1.6298755-4.62519711 4-5.29zm-12.28 19.91 6.64 2 .05 2.23-7.27-2.2zm1.58-5.47 4.93 1.48.09 3.92-6-1.86zm2.48-8.63c.4071511-1.3668345 1.37861314-2.4947492 2.67-3.1-.59 1.6-.47 1.69-.27 11.13l-4.33-1.3zm-.78 31.95-5.82-1.49.53-2.07c.72.37.71.34 4.7 1.35.36328554.0925132.73537593.1461478 1.11.16zm3.56-6.3c-.19988187.7706733-.69791479 1.4302845-1.38440378 1.8335498-.68648898.4032654-1.5051243.5171069-2.27559622.3164502-3.64-.9-4.27-.9-5.07-1.77-.73503871-.7718973-1.00531522-1.8758436-.71-2.9l1.46-5.08 7.88 2.42c.12 5.76.12 5.08.09 5.18zm1.73-12.75h15.71v24h-13.23c-1.1045695 0-2-.8954305-2-2zm2.71 26h13v2h-13zm28 2h-13v-2h13zm.23-4h-13.23v-24h15.71l-.48 22c0 .530433-.2107137 1.0391408-.5857864 1.4142136-.3750728.3750727-.8837806.5857864-1.4142136.5857864zm4.2-11.28.12-5.15 7.87-2.42 1.46 5.08c.2953152 1.0241564.0250387 2.1281027-.71 2.9-.79.82-1.32.82-5.06 1.77-.7773895.2057883-1.6048521.0908576-2.2967306-.3190052s-1.1902406-1.0803392-1.3832694-1.8609948zm3.57 6.33-.52-2.05c.3775637-.0105457.7529672-.060823 1.12-.15 4-1 4-1 4.69-1.35l.53 2.07z"/></svg>